<svg width="24" height="24" viewBox="0 0 24 24" fill="none" xmlns="http://www.w3.org/2000/svg">
<path d="M11.9997 19C12.9457 19 13.8097 18.897 14.5977 18.719L12.8407 16.962C12.5677 16.983 12.2907 17 11.9997 17C6.64874 17 4.57573 13.154 4.07373 12C4.45068 11.1588 4.95978 10.3833 5.58173 9.703L4.18373 8.305C2.64573 9.972 2.06273 11.651 2.05173 11.684C1.98276 11.8894 1.98276 12.1116 2.05173 12.317C2.07273 12.383 4.36673 19 11.9997 19ZM11.9997 5C10.1627 5 8.65373 5.396 7.39573 5.981L3.70673 2.293L2.29273 3.707L20.2927 21.707L21.7067 20.293L18.3877 16.974C21.0017 15.023 21.9347 12.359 21.9487 12.317C22.0177 12.1116 22.0177 11.8894 21.9487 11.684C21.9267 11.617 19.6327 5 11.9997 5ZM16.9717 15.558L14.6917 13.278C14.8817 12.888 14.9997 12.459 14.9997 12C14.9997 10.359 13.6407 9 11.9997 9C11.5407 9 11.1117 9.118 10.7227 9.309L8.91473 7.501C9.90725 7.16041 10.9504 6.991 11.9997 7C17.3507 7 19.4237 10.846 19.9257 12C19.6237 12.692 18.7597 14.342 16.9717 15.558Z" fill="#4B4B60"/>
</svg>
