<svg width="189" height="59" viewBox="0 0 189 59" fill="none" xmlns="http://www.w3.org/2000/svg">
<path opacity="0.1" d="M25.5 17.5308C17.1 19.1431 5.33333 46.082 0.5 59.35V79H189V2.91926C174.5 12.4924 163.5 27.1039 145.5 49.777C134.59 63.5192 125.297 43.1032 121.5 27.1039C110.5 -19.25 92.5208 8.3988 89.5 17.5308C84.5 32.6462 77.5 27.1039 65.5 27.1039C53.5 27.1039 55 34.1577 51 41.7154C47 49.2731 36 15.5154 25.5 17.5308Z" fill="#20B03F"/>
<path d="M0.5 59.35C5.33333 46.082 17.1 19.1431 25.5 17.5308C36 15.5154 47 49.2731 51 41.7154C55 34.1577 53.5 27.1039 65.5 27.1039C77.5 27.1039 84.5 32.6462 89.5 17.5308C92.5208 8.3988 110.5 -19.25 121.5 27.1039C125.297 43.1032 134.59 63.5192 145.5 49.777C163.5 27.1039 174.5 12.4924 189 2.91926" stroke="#20B03F"/>
</svg>
